{"title":"Get on Up 2014 HDRip READNFO x264 AAC-MiLLENiUM","uid":10777675,"size":1248306403,"categoryP":"video","categoryS":"movies","magnet":"?xt=urn:btih:8a7e036b88ba428fe175e30ffc7dbd8314669109&amp;dn=Get+on+Up+2014+HDRip+READNFO+x264+AAC-MiLLENiUM&amp;tr=udp%3A%2F%2Ftracker.openbittorrent.com%3A80&amp;tr=udp%3A%2F%2Fopen.demonii.com%3A1337&amp;tr=udp%3A%2F%2Ftracker.coppersurfer.tk%3A6969&amp;tr=udp%3A%2F%2Fexodus.desync.com%3A6969","seeders":4,"leechers":0,"uploader":"ali1997a","files":4,"time":1408132769,"description":"SilverTorrent - Clean And Verified Torrents Download\n &lt;a href=&quot;\nhttp://i.imgur.com/ky6BGho.png&quot; rel=&quot;nofollow&quot; target=&quot;_NEW&quot;&gt;\nhttp://i.imgur.com/ky6BGho.png&lt;/a&gt;\n &lt;a href=&quot;\nhttp://i.imgur.com/E18uAcL.jpg&quot; rel=&quot;nofollow&quot; target=&quot;_NEW&quot;&gt;\nhttp://i.imgur.com/E18uAcL.jpg&lt;/a&gt;\n\nGet on Up 2014 HDRip READNFO x264 AAC-MiLLENiUM\n\niMDB: http://www.imdb.com/title/tt2473602/\nGeneral\nComplete name: Get on Up 2014 HDRip READNFO x264 AAC-MiLLENiUM.mp4\nFormat: MPEG-4\nFormat profile: Base Media\nCodec ID: isom\nFile size: 1.14 GiB\nDuration: 2h 18mn\nOverall bit rate mode: Variable\nOverall bit rate: 1 174 Kbps\nEncoded date: UTC 2014-08-15 16:31:13\nTagged date: UTC 2014-08-15 16:31:13\n\nVideo\nID: 1\nFormat: AVC\nFormat/Info: Advanced Video Codec\nFormat profile: &lt;a class=&quot;__cf_email__&quot; href=&quot;/cdn-cgi/l/email-protection&quot; data-cfemail=&quot;96defff1fed6daa2b8a7&quot;&gt;[email&amp;#160;protected]&lt;/a&gt;&lt;script cf-hash='f9e31' type=&quot;text/javascript&quot;&gt;\n/* &lt;![CDATA[ */!function(){try{var t=&quot;currentScript&quot;in document?document.currentScript:function(){for(var t=document.getElementsByTagName(&quot;script&quot;),e=t.length;e--;)if(t[e].getAttribute(&quot;cf-hash&quot;))return t[e]}();if(t&amp;&amp;t.previousSibling){var e,r,n,i,c=t.previousSibling,a=c.getAttribute(&quot;data-cfemail&quot;);if(a){for(e=&quot;&quot;,r=parseInt(a.substr(0,2),16),n=2;a.length-n;n+=2)i=parseInt(a.substr(n,2),16)^r,e+=String.fromCharCode(i);e=document.createTextNode(e),c.parentNode.replaceChild(e,c)}}}catch(u){}}();/* ]]&gt; */&lt;/script&gt;\nFormat settings, CABAC: Yes\nFormat settings, ReFrames: 3 frames\nCodec ID: avc1\nCodec ID/Info: Advanced Video Coding\nDuration: 2h 18mn\nBit rate mode: Variable\nBit rate: 1 042 Kbps\nMaximum bit rate: 40.0 Mbps\nWidth: 720 pixels\nHeight: 344 pixels\nDisplay aspect ratio: 2.093\nFrame rate mode: Constant\nFrame rate: 30.000 fps\nColor space: YUV\nChroma subsampling: 4:2:0\nBit depth: 8 bits\nScan type: Progressive\nBits/(Pixel*Frame): 0.140\nStream size: 1.01 GiB (89%)\nWriting library: x264 core 142 r2453 ea0ca51\n\nAudio\nID: 2\nFormat: AAC\nFormat/Info: Advanced Audio Codec\nFormat profile: LC\nCodec ID: 40\nDuration: 2h 18mn\nBit rate mode: Variable\nBit rate: 128 Kbps\nMaximum bit rate: 145 Kbps\nChannel(s): 2 channels\nChannel positions: Front: L R\nSampling rate: 48.0 KHz\nCompression mode: Lossy\nStream size: 127 MiB (11%)\nLanguage: English\nEncoded date: UTC 2014-08-15 16:31:43\nTagged date: UTC 2014-08-15 16:31:47\n\n &lt;a href=&quot;\nhttp://i.imgur.com/cF06DKt.png&quot; rel=&quot;nofollow&quot; target=&quot;_NEW&quot;&gt;\nhttp://i.imgur.com/cF06DKt.png&lt;/a&gt;\n &lt;a href=&quot;\nhttp://i.imgur.com/6s4tTSV.png&quot; rel=&quot;nofollow&quot; target=&quot;_NEW&quot;&gt;\nhttp://i.imgur.com/6s4tTSV.png&lt;/a&gt;\n &lt;a href=&quot;\nhttp://i.imgur.com/ucHFHDO.png&quot; rel=&quot;nofollow&quot; target=&quot;_NEW&quot;&gt;\nhttp://i.imgur.com/ucHFHDO.png&lt;/a&gt;","torrent":{"xt":"urn:btih:8a7e036b88ba428fe175e30ffc7dbd8314669109","amp;dn":"Get+on+Up+2014+HDRip+READNFO+x264+AAC-MiLLENiUM","amp;tr":["udp%3A%2F%2Ftracker.openbittorrent.com%3A80","udp%3A%2F%2Fopen.demonii.com%3A1337","udp%3A%2F%2Ftracker.coppersurfer.tk%3A6969","udp%3A%2F%2Fexodus.desync.com%3A6969"],"infoHash":"8a7e036b88ba428fe175e30ffc7dbd8314669109","infoHashBuffer":{"type":"Buffer","data":[138,126,3,107,136,186,66,143,225,117,227,15,252,125,189,131,20,102,145,9]},"announce":[],"urlList":[]}}